<?xml version="1.0" encoding="UTF-8"?><svg xmlns="http://www.w3.org/2000/svg" viewBox="0 0 64 64"><defs><style>.cls-1{fill:#fff;}.cls-2{fill:#371b51;}</style></defs><g id="Layer_2"><rect class="cls-2" width="64" height="64"/></g><g id="Layer_1"><path class="cls-1" d="m13.88,39.86c6.87,5.16,15.62,7.3,24.06,5.58,4.19-.86,8.2-2.67,11.66-5.17,1.5-1.08,2.94-2.21,4.4-3.33,1.64-1.25,3.28-2.49,4.92-3.74.59-.44,1-1.47.26-2.04-2.21-1.72-4.44-3.44-6.65-5.16-.98-.76-1.94-1.54-2.94-2.25-2.45-1.77-5.14-3.16-7.99-4.17-5.47-1.91-11.5-2.13-17.09-.65-2.93.78-5.77,2.02-8.34,3.62-1.37.86-2.64,1.84-3.92,2.83-2.47,1.93-4.96,3.84-7.43,5.77-.74.57-.33,1.6.26,2.04,2.96,2.24,5.88,4.45,8.81,6.67"/></g><g id="Layer_3"><circle class="cls-2" cx="32.03" cy="32.05" r="7.85"/></g><g id="Layer_4"><path class="cls-1" d="m32.05,24.17c3.2.03,6.25,2.02,7.36,5.08,1.15,3.16.21,6.68-2.36,8.84-2.5,2.11-6.21,2.34-9.01.68-2.77-1.65-4.35-4.99-3.71-8.19.72-3.7,3.94-6.37,7.72-6.4,1.68-.01,1.68-2.62,0-2.6-4.4.04-8.29,2.79-9.83,6.91-1.51,4.02-.2,8.85,3.12,11.56,3.41,2.79,8.29,3.24,12.09.94,3.79-2.29,5.69-6.76,4.84-11.08-.95-4.83-5.38-8.28-10.23-8.33-1.68-.01-1.68,2.59,0,2.6h0Z"/></g></svg>